<svg width="150" height="60" viewBox="0 0 150 60" fill="none" xmlns="http://www.w3.org/2000/svg">
<g clip-path="url(#clip0_4_5)">
<path d="M8.69709 41.6335V22.5002C8.69709 16.3002 13.6905 11.3002 19.8082 11.3002H24.1733C30.3241 11.3002 35.2844 16.3335 35.2844 22.5002V41.6335H41.0053C42.6587 41.6335 43.9815 40.3002 43.9815 38.6335V22.8002C43.9815 11.7668 35.119 2.8335 24.1733 2.8335H19.8082C8.86244 2.8335 0 11.7668 0 22.8002V41.6335H8.69709Z" fill="white"/>
<path d="M147.024 33.8667H125.132C119.147 33.8667 114.286 28.9667 114.286 22.9334C114.286 16.9001 119.147 12.0001 125.132 12.0001H147.024C148.677 12.0001 150 10.6667 150 9.00006V4.2334H122.024C112.169 4.2334 104.167 12.3001 104.167 22.2334V23.6334C104.167 33.5667 112.169 41.6334 122.024 41.6334H150V36.8667C150 35.2334 148.644 33.8667 147.024 33.8667Z" fill="white"/>
<path d="M82.0767 1.5V10.1667C85.8465 12.3667 88.4259 16.4667 88.4259 21.1667V33.8667H88.3928V41.6333H96.7923V21.1667C96.7592 11.8333 90.5423 3.96667 82.0767 1.5Z" fill="white"/>
<path d="M61.0119 21.167C61.0119 16.167 63.8889 11.867 68.0556 9.76696V1.30029C59.2262 3.50029 52.6455 11.567 52.6455 21.167C52.6455 32.467 61.7394 41.6336 72.9497 41.6336H75.0661V33.867H73.6442C66.6667 33.867 61.0119 28.2003 61.0119 21.167Z" fill="white"/>
<path d="M79.2659 18.3667H70.8665V0.7C70.8665 0.7 72.2553 0 75.0662 0C78.5715 0 79.2659 0.7 79.2659 0.7V18.3667V18.3667Z" fill="#EB1C00"/>
<path d="M5.65481 55.4998C5.65481 56.1332 5.42333 56.6665 4.99344 57.0665C4.53047 57.4665 4.00137 57.6665 3.34 57.6665H0.132324V50.1665H3.07545C3.70375 50.1665 4.26592 50.3665 4.69582 50.7665C5.12571 51.1665 5.35719 51.6665 5.35719 52.2665C5.35719 52.8998 5.12571 53.3998 4.66275 53.7665C5.32412 54.1665 5.65481 54.7332 5.65481 55.4998ZM1.62042 51.5665V53.1998H3.10851C3.57148 53.1998 3.90217 52.8332 3.90217 52.3665C3.90217 51.8998 3.57148 51.5332 3.10851 51.5332H1.62042V51.5665ZM3.34 56.2998C3.83603 56.2998 4.19978 55.9332 4.19978 55.3998C4.19978 54.8998 3.83603 54.5332 3.34 54.5332H1.62042V56.2998H3.34V56.2998Z" fill="white"/>
<path d="M6.77914 48.2333C7.27517 47.7 8.23416 48.1333 8.20109 48.8C8.20109 49.2666 7.80427 49.6333 7.37437 49.6333C6.64686 49.6666 6.25004 48.6667 6.77914 48.2333ZM6.64686 50.1667H8.13496V57.6666H6.64686V50.1667Z" fill="white"/>
<path d="M10.9788 56.2665H13.8558V57.6665H9.49072V50.1665H10.9788V56.2665Z" fill="white"/>
<path d="M14.8149 48.2333C15.3109 47.7 16.2699 48.1333 16.2368 48.8C16.2368 49.2666 15.84 49.6333 15.4101 49.6333C14.7157 49.6666 14.2858 48.6667 14.8149 48.2333ZM14.6826 50.1667H16.1707V57.6666H14.6826V50.1667Z" fill="white"/>
<path d="M20.5688 57.7664V58.1664C20.9987 58.2664 21.3294 58.5331 21.3294 58.9997C21.3294 59.7331 20.5357 60.0664 18.9815 59.9997V58.9997C19.742 59.0664 20.1389 58.9664 20.1389 58.7997C20.1389 58.6664 19.9074 58.5664 19.4775 58.5331V57.7997C18.287 57.6331 17.4272 56.9664 17.0635 55.9664L18.3201 55.2331C18.6177 55.9997 19.1799 56.3664 20.0397 56.3664C20.8664 56.3664 21.2301 56.0331 21.2301 55.5664C21.2301 55.2997 21.0979 55.0997 20.8664 54.9664C20.6349 54.8331 20.205 54.6664 19.6098 54.4997C18.9484 54.2997 18.5185 54.1331 18.0555 53.7997C17.5926 53.4664 17.3611 52.9331 17.3611 52.2664C17.3611 51.5997 17.5926 51.0331 18.0886 50.6664C18.5846 50.2664 19.1468 50.0664 19.8413 50.0664C21.0648 50.0664 21.9907 50.6997 22.5198 51.7331L21.2632 52.4664C20.9656 51.8331 20.4696 51.4997 19.8413 51.4997C19.246 51.4997 18.8492 51.7997 18.8492 52.2331C18.8492 52.4664 18.9484 52.6664 19.1468 52.7997C19.3452 52.9331 19.742 53.0997 20.2711 53.2664L20.8003 53.4331C20.9325 53.4664 21.0648 53.5331 21.2963 53.5997C21.4947 53.6664 21.66 53.7331 21.7592 53.8331C21.9907 53.9664 22.3214 54.2331 22.4537 54.4997C22.619 54.7664 22.7182 55.1331 22.7182 55.5664C22.7182 56.7664 21.8915 57.5997 20.5688 57.7664Z" fill="white"/>
<path d="M23.7765 48.2333C24.2725 47.7 25.2315 48.1333 25.1984 48.8C25.1984 49.2666 24.8016 49.6333 24.3717 49.6333C23.6442 49.6666 23.2474 48.6667 23.7765 48.2333ZM23.6442 50.1667H25.1323V57.6666H23.6442V50.1667Z" fill="white"/>
<path d="M33.8296 50.1665V57.6665H32.3745V52.7998L30.2581 56.2665H30.0928L27.9764 52.7998V57.6665H26.4883V50.1665H28.0094L30.1589 53.6998L32.3084 50.1665H33.8296Z" fill="white"/>
<path d="M42.8904 50.1665V51.5665H40.8732V57.6665H39.3851V51.5998H37.3679V50.1998H42.8904V50.1665Z" fill="white"/>
<path d="M45.1721 56.2665H48.3467V57.6665H43.717V50.1665H48.2805V51.5665H45.1721V53.1665H48.016V54.5665H45.1721V56.2665Z" fill="white"/>
<path d="M55.2581 57.6665H53.5385L50.8599 54.1665V57.6665H49.3718V50.1665H50.8599V53.4665L53.4393 50.1665H55.1589L52.3811 53.7998L55.2581 57.6665Z" fill="white"/>
<path d="M60.3176 50.1665H61.8057V57.6665H60.6814L57.4737 53.0998V57.6665H55.9856V50.1665H57.1099L60.3176 54.7332V50.1665Z" fill="white"/>
<path d="M66.7329 57.8332C65.6417 57.8332 64.7157 57.4665 63.9551 56.6999C63.1946 55.9332 62.8308 55.0332 62.8308 53.9332C62.8308 52.8332 63.1946 51.9332 63.9551 51.1665C64.7157 50.3999 65.6417 50.0332 66.7329 50.0332C67.8242 50.0332 68.7501 50.3999 69.5107 51.1665C70.2713 51.8999 70.635 52.8332 70.635 53.9332C70.635 55.0332 70.2713 55.9332 69.5107 56.6999C68.7501 57.4332 67.8242 57.8332 66.7329 57.8332ZM66.7329 56.3665C67.4274 56.3665 67.9895 56.1332 68.4525 55.6665C68.9155 55.1999 69.147 54.6332 69.147 53.8999C69.147 53.1665 68.9155 52.5999 68.4525 52.1332C67.9895 51.6665 67.4274 51.4332 66.7329 51.4332C66.0385 51.4332 65.4763 51.6665 65.0134 52.1332C64.5504 52.5999 64.3189 53.1665 64.3189 53.8999C64.3189 54.6332 64.5504 55.1999 65.0134 55.6665C65.4763 56.1665 66.0385 56.3665 66.7329 56.3665Z" fill="white"/>
<path d="M73.1481 56.2665H76.0251V57.6665H71.6931V50.1665H73.1812V56.2665H73.1481Z" fill="white"/>
<path d="M79.9274 57.8332C78.8361 57.8332 77.9102 57.4665 77.1496 56.6999C76.389 55.9332 76.0253 55.0332 76.0253 53.9332C76.0253 52.8332 76.389 51.9332 77.1496 51.1665C77.9102 50.3999 78.8361 50.0332 79.9274 50.0332C81.0187 50.0332 81.9446 50.3999 82.7052 51.1665C83.4658 51.8999 83.8295 52.8332 83.8295 53.9332C83.8295 55.0332 83.4658 55.9332 82.7052 56.6999C81.9446 57.4332 81.0187 57.8332 79.9274 57.8332ZM79.9274 56.3665C80.6218 56.3665 81.184 56.1332 81.647 55.6665C82.1099 55.1999 82.3414 54.6332 82.3414 53.8999C82.3414 53.1665 82.1099 52.5999 81.647 52.1332C81.184 51.6665 80.6218 51.4332 79.9274 51.4332C79.2329 51.4332 78.6708 51.6665 78.2078 52.1332C77.7449 52.5999 77.5134 53.1665 77.5134 53.8999C77.5134 54.6332 77.7449 55.1999 78.2078 55.6665C78.6708 56.1665 79.266 56.3665 79.9274 56.3665Z" fill="white"/>
<path d="M83.8625 56.3998L85.1522 55.6665C85.3837 56.1332 85.7805 56.3665 86.3427 56.3665C87.1364 56.3665 87.5001 55.9665 87.5001 55.3332V50.1665H88.9551V55.3332C88.9551 56.0998 88.7237 56.7332 88.2276 57.1665C87.7316 57.5998 87.1033 57.8332 86.3427 57.8332C85.1522 57.8332 84.3255 57.3665 83.8625 56.3998Z" fill="white"/>
<path d="M90.4432 48.2333C90.9392 47.7 91.8982 48.1333 91.8651 48.8C91.8651 49.2666 91.4683 49.6333 91.0384 49.6333C90.344 49.6666 89.9141 48.6667 90.4432 48.2333ZM90.3109 50.1667H91.799V57.6666H90.3109V50.1667Z" fill="white"/>
<path d="M95.4696 55.9664L96.7262 55.2331C97.0238 55.9997 97.586 56.3664 98.4458 56.3664C99.2725 56.3664 99.6363 56.0331 99.6363 55.5664C99.6363 55.2997 99.504 55.0997 99.2725 54.9664C99.041 54.8331 98.6111 54.6664 98.0159 54.4997C97.3545 54.2997 96.9246 54.1331 96.4617 53.7997C95.9987 53.4664 95.7672 52.9331 95.7672 52.2664C95.7672 51.5997 95.9987 51.0331 96.4947 50.6664C96.9908 50.2664 97.5529 50.0664 98.2474 50.0664C99.4709 50.0664 100.397 50.6997 100.926 51.7331L99.6693 52.4664C99.3717 51.8331 98.8757 51.4997 98.2474 51.4997C97.6521 51.4997 97.2553 51.7997 97.2553 52.2331C97.2553 52.4664 97.3545 52.6664 97.5529 52.7997C97.7513 52.9331 98.1482 53.0997 98.6773 53.2664L99.2064 53.4331C99.3386 53.4664 99.4709 53.5331 99.7024 53.5997C99.9008 53.6664 100.066 53.7331 100.165 53.8331C100.397 53.9664 100.728 54.2331 100.86 54.4997C101.025 54.7664 101.124 55.1331 101.124 55.5664C101.124 56.2664 100.86 56.7997 100.364 57.1997C99.8677 57.5997 99.2064 57.7997 98.4127 57.7997C96.9246 57.8331 95.8664 57.0997 95.4696 55.9664Z" fill="white"/>
<path d="M102.183 48.2333C102.679 47.7 103.638 48.1333 103.605 48.8C103.605 49.2666 103.208 49.6333 102.778 49.6333C102.083 49.6666 101.653 48.6667 102.183 48.2333ZM102.05 50.1667H103.538V57.6666H102.05V50.1667Z" fill="white"/>
<path d="M104.398 55.9664L105.655 55.2331C105.952 55.9997 106.515 56.3664 107.374 56.3664C108.201 56.3664 108.565 56.0331 108.565 55.5664C108.565 55.2997 108.433 55.0997 108.201 54.9664C107.97 54.8331 107.54 54.6664 106.944 54.4997C106.283 54.2997 105.853 54.1331 105.39 53.7997C104.927 53.4664 104.696 52.9331 104.696 52.2664C104.696 51.5997 104.927 51.0331 105.423 50.6664C105.919 50.2664 106.482 50.0664 107.176 50.0664C108.4 50.0664 109.325 50.6997 109.855 51.7331L108.598 52.4664C108.3 51.8331 107.804 51.4997 107.176 51.4997C106.581 51.4997 106.184 51.7997 106.184 52.2331C106.184 52.4664 106.283 52.6664 106.482 52.7997C106.68 52.9331 107.077 53.0997 107.606 53.2664L108.135 53.4331C108.267 53.4664 108.4 53.5331 108.631 53.5997C108.829 53.6664 108.995 53.7331 109.094 53.8331C109.325 53.9664 109.656 54.2331 109.788 54.4997C109.954 54.7664 110.053 55.1331 110.053 55.5664C110.053 56.2664 109.788 56.7997 109.292 57.1997C108.796 57.5997 108.135 57.7997 107.341 57.7997C105.886 57.8331 104.828 57.0997 104.398 55.9664Z" fill="white"/>
<path d="M115.741 50.1665V51.5665H113.724V57.6665H112.235V51.5998H110.218V50.1998H115.741V50.1665Z" fill="white"/>
<path d="M118.056 56.2665H121.23V57.6665H116.601V50.1665H121.197V51.5665H118.056V53.1665H120.9V54.5665H118.056V56.2665Z" fill="white"/>
<path d="M129.597 50.1665V57.6665H128.142V52.7998L126.025 56.2665H125.86L123.743 52.7998V57.6665H122.255V50.1665H123.777L125.926 53.6998L128.075 50.1665H129.597Z" fill="white"/>
<path d="M132.474 56.2665H135.351V57.6665H131.019V50.1665H132.507V56.2665H132.474Z" fill="white"/>
<path d="M137.632 56.2665H140.807V57.6665H136.177V50.1665H140.774V51.5665H137.665V53.1665H140.509V54.5665H137.665V56.2665H137.632Z" fill="white"/>
<path d="M145.966 57.6665L144.444 55.0665H143.32V57.6665H141.832V50.1665H144.841C145.536 50.1665 146.131 50.3998 146.627 50.8998C147.123 51.3665 147.355 51.9665 147.355 52.6665C147.355 53.5998 146.759 54.4665 145.899 54.8665L147.553 57.6998H145.966V57.6665ZM143.32 51.5665V53.7665H144.841C145.403 53.7665 145.866 53.2665 145.866 52.6665C145.866 52.0665 145.403 51.5665 144.841 51.5665H143.32V51.5665Z" fill="white"/>
<path d="M148.578 48.2333C149.074 47.7 150.033 48.1333 150 48.8C150 49.2666 149.603 49.6333 149.173 49.6333C148.446 49.6666 148.016 48.6667 148.578 48.2333ZM148.413 50.1667H149.901V57.6666H148.413V50.1667Z" fill="white"/>
</g>
<defs>
<clipPath id="clip0_4_5">
<rect width="150" height="60" fill="white"/>
</clipPath>
</defs>
</svg>
